<?xml version="1.0" encoding="UTF-8" standalone="no"?>
<!-- Created with Inkscape (http://www.inkscape.org/) -->

<svg
   xmlns:dc="http://purl.org/dc/elements/1.1/"
   xmlns:cc="http://creativecommons.org/ns#"
   xmlns:rdf="http://www.w3.org/1999/02/22-rdf-syntax-ns#"
   xmlns:svg="http://www.w3.org/2000/svg"
   xmlns="http://www.w3.org/2000/svg"
   xmlns:sodipodi="http://sodipodi.sourceforge.net/DTD/sodipodi-0.dtd"
   xmlns:inkscape="http://www.inkscape.org/namespaces/inkscape"
   width="1250.7874"
   height="885.82678"
   id="svg4553"
   version="1.1"
   inkscape:version="0.48.4 r9939"
   sodipodi:docname="Sheet2C_B4.svg">
  <defs
     id="defs4555" />
  <sodipodi:namedview
     id="base"
     pagecolor="#ffffff"
     bordercolor="#666666"
     borderopacity="1.0"
     inkscape:pageopacity="0.0"
     inkscape:pageshadow="2"
     inkscape:zoom="0.78109236"
     inkscape:cx="711.47723"
     inkscape:cy="628.8571"
     inkscape:document-units="mm"
     inkscape:current-layer="layer2"
     showgrid="false"
     units="mm"
     inkscape:window-width="1200"
     inkscape:window-height="1836"
     inkscape:window-x="-8"
     inkscape:window-y="-8"
     inkscape:window-maximized="1"
     showguides="true"
     inkscape:guide-bbox="true">
    <sodipodi:guide
       orientation="1,0"
       position="88.582677,1173.2319"
       id="guide5580" />
    <sodipodi:guide
       orientation="1,0"
       position="1162.2047,1061.0241"
       id="guide5582" />
    <sodipodi:guide
       orientation="0,1"
       position="610.54264,850.3937"
       id="guide5584" />
    <sodipodi:guide
       orientation="0,1"
       position="445.53112,35.433071"
       id="guide5586" />
    <sodipodi:guide
       orientation="1,0"
       position="625.3937,1092.4421"
       id="guide3924" />
  </sodipodi:namedview>
  <metadata
     id="metadata4558">
    <rdf:RDF>
      <cc:Work
         rdf:about="">
        <dc:format>image/svg+xml</dc:format>
        <dc:type
           rdf:resource="http://purl.org/dc/dcmitype/StillImage" />
        <dc:title></dc:title>
      </cc:Work>
    </rdf:RDF>
  </metadata>
  <g
     inkscape:label="Layer 1"
     inkscape:groupmode="layer"
     id="layer1"
     transform="translate(0,-166.5354)">
    <rect
       style="fill:none;stroke:#000000;stroke-width:3.53833866;stroke-linejoin:bevel;stroke-miterlimit:4;stroke-opacity:1;stroke-dasharray:none"
       id="rect5191"
       width="1070.0837"
       height="138.19394"
       x="90.351852"
       y="203.73766" />
    <text
       xml:space="preserve"
       style="font-size:24px;font-style:normal;font-variant:normal;font-weight:bold;font-stretch:normal;line-height:125%;letter-spacing:0px;word-spacing:0px;fill:#000000;fill-opacity:1;stroke:none;font-family:Arial Rounded MT Bold;-inkscape-font-specification:Sans Bold"
       x="56.184708"
       y="423.3049"
       id="text5193"
       sodipodi:linespacing="125%"><tspan
         sodipodi:role="line"
         id="tspan5195"
         x="56.184708"
         y="423.3049" /></text>
    <text
       xml:space="preserve"
       style="font-size:18px;font-style:normal;font-variant:normal;font-weight:bold;font-stretch:normal;line-height:125%;letter-spacing:0px;word-spacing:0px;fill:#000000;fill-opacity:1;stroke:none;font-family:Arial Rounded MT Bold;-inkscape-font-specification:Sans Bold"
       x="105.33433"
       y="234.56424"
       id="text5197"
       sodipodi:linespacing="125%"><tspan
         sodipodi:role="line"
         id="tspan5199"
         x="105.33433"
         y="234.56424">Put circle in all boxes         as you read the instruction.</tspan></text>
    <rect
       style="fill:none;stroke:#000000;stroke-width:2.70193172;stroke-linejoin:bevel;stroke-miterlimit:4;stroke-opacity:1;stroke-dasharray:none"
       id="rect5201"
       width="25.644524"
       height="25.644526"
       x="299.71973"
       y="216.65131" />
    <rect
       style="fill:none;stroke:#000000;stroke-width:3.42832851;stroke-linejoin:bevel;stroke-miterlimit:4;stroke-opacity:1;stroke-dasharray:none"
       id="rect5221"
       width="1070.1937"
       height="32.004742"
       x="90.296844"
       y="363.13147" />
    <rect
       style="fill:none;stroke:#000000;stroke-width:4.69660425;stroke-linejoin:bevel;stroke-miterlimit:4;stroke-opacity:1;stroke-dasharray:none"
       id="rect5223"
       width="137.03568"
       height="30.736465"
       x="1022.8207"
       y="204.31677" />
    <text
       xml:space="preserve"
       style="font-size:24px;font-style:normal;font-variant:normal;font-weight:bold;font-stretch:normal;line-height:125%;letter-spacing:0px;word-spacing:0px;fill:#000000;fill-opacity:1;stroke:none;font-family:Arial Rounded MT Bold;-inkscape-font-specification:Sans Bold"
       x="1040.1307"
       y="227.01807"
       id="text5225"
       sodipodi:linespacing="125%"><tspan
         sodipodi:role="line"
         id="tspan5227"
         x="1040.1307"
         y="227.01807">Sheet 2C</tspan></text>
    <path
       style="fill:none;stroke:#000000;stroke-width:3.48407698;stroke-linecap:butt;stroke-linejoin:miter;stroke-miterlimit:4;stroke-opacity:1;stroke-dasharray:none"
       d="m 628.9074,362.98577 0,32.12254"
       id="path5229"
       inkscape:connector-curvature="0" />
    <path
       style="fill:none;stroke:#000000;stroke-width:3.48407698;stroke-linecap:butt;stroke-linejoin:miter;stroke-miterlimit:4;stroke-opacity:1;stroke-dasharray:none"
       d="m 1089.5374,362.98577 0,32.12254"
       id="path5229-8"
       inkscape:connector-curvature="0" />
    <path
       style="fill:none;stroke:#000000;stroke-width:3.48407698;stroke-linecap:butt;stroke-linejoin:miter;stroke-miterlimit:4;stroke-opacity:1;stroke-dasharray:none"
       d="m 1054.1043,362.98577 0,32.12254"
       id="path5229-2"
       inkscape:connector-curvature="0" />
    <path
       style="fill:none;stroke:#000000;stroke-width:3.48407698;stroke-linecap:butt;stroke-linejoin:miter;stroke-miterlimit:4;stroke-opacity:1;stroke-dasharray:none"
       d="m 1018.6712,362.98577 0,32.12254"
       id="path5229-4"
       inkscape:connector-curvature="0" />
    <path
       style="fill:none;stroke:#000000;stroke-width:3.48407698;stroke-linecap:butt;stroke-linejoin:miter;stroke-miterlimit:4;stroke-opacity:1;stroke-dasharray:none"
       d="m 983.23813,362.98577 0,32.12254"
       id="path5229-5"
       inkscape:connector-curvature="0" />
    <path
       style="fill:none;stroke:#000000;stroke-width:3.48407698;stroke-linecap:butt;stroke-linejoin:miter;stroke-miterlimit:4;stroke-opacity:1;stroke-dasharray:none"
       d="m 947.80504,362.98577 0,32.12254"
       id="path5229-51"
       inkscape:connector-curvature="0" />
    <path
       style="fill:none;stroke:#000000;stroke-width:3.48407698;stroke-linecap:butt;stroke-linejoin:miter;stroke-miterlimit:4;stroke-opacity:1;stroke-dasharray:none"
       d="m 912.372,362.98577 0,32.12254"
       id="path5229-7"
       inkscape:connector-curvature="0" />
    <path
       style="fill:none;stroke:#000000;stroke-width:3.48407698;stroke-linecap:butt;stroke-linejoin:miter;stroke-miterlimit:4;stroke-opacity:1;stroke-dasharray:none"
       d="m 876.9389,362.98577 0,32.12254"
       id="path5229-1"
       inkscape:connector-curvature="0" />
    <path
       style="fill:none;stroke:#000000;stroke-width:3.48407698;stroke-linecap:butt;stroke-linejoin:miter;stroke-miterlimit:4;stroke-opacity:1;stroke-dasharray:none"
       d="m 841.50586,362.98577 0,32.12254"
       id="path5229-15"
       inkscape:connector-curvature="0" />
    <path
       style="fill:none;stroke:#000000;stroke-width:3.48407698;stroke-linecap:butt;stroke-linejoin:miter;stroke-miterlimit:4;stroke-opacity:1;stroke-dasharray:none"
       d="m 806.07277,362.98577 0,32.12254"
       id="path5229-27"
       inkscape:connector-curvature="0" />
    <path
       style="fill:none;stroke:#000000;stroke-width:3.48407698;stroke-linecap:butt;stroke-linejoin:miter;stroke-miterlimit:4;stroke-opacity:1;stroke-dasharray:none"
       d="m 770.63969,362.98577 0,32.12254"
       id="path5229-6"
       inkscape:connector-curvature="0" />
    <path
       style="fill:none;stroke:#000000;stroke-width:3.48407698;stroke-linecap:butt;stroke-linejoin:miter;stroke-miterlimit:4;stroke-opacity:1;stroke-dasharray:none"
       d="m 735.20663,362.98577 0,32.12254"
       id="path5229-14"
       inkscape:connector-curvature="0" />
    <path
       style="fill:none;stroke:#000000;stroke-width:3.48407698;stroke-linecap:butt;stroke-linejoin:miter;stroke-miterlimit:4;stroke-opacity:1;stroke-dasharray:none"
       d="m 699.77356,362.98577 0,32.12254"
       id="path5229-23"
       inkscape:connector-curvature="0" />
    <path
       style="fill:none;stroke:#000000;stroke-width:3.48407698;stroke-linecap:butt;stroke-linejoin:miter;stroke-miterlimit:4;stroke-opacity:1;stroke-dasharray:none"
       d="m 664.34046,362.98577 0,32.12254"
       id="path5229-22"
       inkscape:connector-curvature="0" />
    <path
       style="fill:none;stroke:#000000;stroke-width:3.48407698;stroke-linecap:butt;stroke-linejoin:miter;stroke-miterlimit:4;stroke-opacity:1;stroke-dasharray:none"
       d="m 1124.9705,362.98577 0,32.12254"
       id="path5229-16"
       inkscape:connector-curvature="0" />
    <path
       style="fill:none;stroke:#000000;stroke-width:3.48407698;stroke-linecap:butt;stroke-linejoin:miter;stroke-miterlimit:4;stroke-opacity:1;stroke-dasharray:none"
       d="m 1160.4036,362.98577 0,32.12254"
       id="path5229-16-7"
       inkscape:connector-curvature="0" />
    <text
       xml:space="preserve"
       style="font-size:24px;font-style:normal;font-variant:normal;font-weight:bold;font-stretch:normal;line-height:125%;letter-spacing:0px;word-spacing:0px;fill:#000000;fill-opacity:1;stroke:none;font-family:Arial Rounded MT Bold;-inkscape-font-specification:Sans Bold"
       x="639.84216"
       y="387.16901"
       id="text5365"
       sodipodi:linespacing="125%"><tspan
         sodipodi:role="line"
         id="tspan5367"
         x="639.84216"
         y="387.16901">1</tspan></text>
    <text
       xml:space="preserve"
       style="font-size:24px;font-style:normal;font-variant:normal;font-weight:bold;font-stretch:normal;line-height:125%;letter-spacing:0px;word-spacing:0px;fill:#000000;fill-opacity:1;stroke:none;font-family:Arial Rounded MT Bold;-inkscape-font-specification:Sans Bold"
       x="675.25568"
       y="387.16901"
       id="text5365-6"
       sodipodi:linespacing="125%"><tspan
         sodipodi:role="line"
         id="tspan5367-1"
         x="675.25568"
         y="387.16901">2</tspan></text>
    <text
       xml:space="preserve"
       style="font-size:24px;font-style:normal;font-variant:normal;font-weight:bold;font-stretch:normal;line-height:125%;letter-spacing:0px;word-spacing:0px;fill:#000000;fill-opacity:1;stroke:none;font-family:Arial Rounded MT Bold;-inkscape-font-specification:Sans Bold"
       x="923.15063"
       y="387.16901"
       id="text5365-8"
       sodipodi:linespacing="125%"><tspan
         sodipodi:role="line"
         id="tspan5367-9"
         x="923.15063"
         y="387.16901">9</tspan></text>
    <text
       xml:space="preserve"
       style="font-size:24px;font-style:normal;font-variant:normal;font-weight:bold;font-stretch:normal;line-height:125%;letter-spacing:0px;word-spacing:0px;fill:#000000;fill-opacity:1;stroke:none;font-family:Arial Rounded MT Bold;-inkscape-font-specification:Sans Bold"
       x="887.73706"
       y="387.16901"
       id="text5365-2"
       sodipodi:linespacing="125%"><tspan
         sodipodi:role="line"
         id="tspan5367-7"
         x="887.73706"
         y="387.16901">8</tspan></text>
    <text
       xml:space="preserve"
       style="font-size:24px;font-style:normal;font-variant:normal;font-weight:bold;font-stretch:normal;line-height:125%;letter-spacing:0px;word-spacing:0px;fill:#000000;fill-opacity:1;stroke:none;font-family:Arial Rounded MT Bold;-inkscape-font-specification:Sans Bold"
       x="852.32349"
       y="387.16901"
       id="text5365-9"
       sodipodi:linespacing="125%"><tspan
         sodipodi:role="line"
         id="tspan5367-5"
         x="852.32349"
         y="387.16901">7</tspan></text>
    <text
       xml:space="preserve"
       style="font-size:24px;font-style:normal;font-variant:normal;font-weight:bold;font-stretch:normal;line-height:125%;letter-spacing:0px;word-spacing:0px;fill:#000000;fill-opacity:1;stroke:none;font-family:Arial Rounded MT Bold;-inkscape-font-specification:Sans Bold"
       x="816.90991"
       y="387.16901"
       id="text5365-4"
       sodipodi:linespacing="125%"><tspan
         sodipodi:role="line"
         id="tspan5367-3"
         x="816.90991"
         y="387.16901">6</tspan></text>
    <text
       xml:space="preserve"
       style="font-size:24px;font-style:normal;font-variant:normal;font-weight:bold;font-stretch:normal;line-height:125%;letter-spacing:0px;word-spacing:0px;fill:#000000;fill-opacity:1;stroke:none;font-family:Arial Rounded MT Bold;-inkscape-font-specification:Sans Bold"
       x="781.49634"
       y="387.16901"
       id="text5365-1"
       sodipodi:linespacing="125%"><tspan
         sodipodi:role="line"
         id="tspan5367-2"
         x="781.49634"
         y="387.16901">5</tspan></text>
    <text
       xml:space="preserve"
       style="font-size:24px;font-style:normal;font-variant:normal;font-weight:bold;font-stretch:normal;line-height:125%;letter-spacing:0px;word-spacing:0px;fill:#000000;fill-opacity:1;stroke:none;font-family:Arial Rounded MT Bold;-inkscape-font-specification:Sans Bold"
       x="746.08282"
       y="387.16901"
       id="text5365-3"
       sodipodi:linespacing="125%"><tspan
         sodipodi:role="line"
         id="tspan5367-34"
         x="746.08282"
         y="387.16901">4</tspan></text>
    <text
       xml:space="preserve"
       style="font-size:24px;font-style:normal;font-variant:normal;font-weight:bold;font-stretch:normal;line-height:125%;letter-spacing:0px;word-spacing:0px;fill:#000000;fill-opacity:1;stroke:none;font-family:Arial Rounded MT Bold;-inkscape-font-specification:Sans Bold"
       x="710.66925"
       y="387.16901"
       id="text5365-11"
       sodipodi:linespacing="125%"><tspan
         sodipodi:role="line"
         id="tspan5367-38"
         x="710.66925"
         y="387.16901">3</tspan></text>
    <text
       xml:space="preserve"
       style="font-size:24px;font-style:normal;font-variant:normal;font-weight:bold;font-stretch:normal;line-height:125%;letter-spacing:0px;word-spacing:0px;fill:#000000;fill-opacity:1;stroke:none;font-family:Arial Rounded MT Bold;-inkscape-font-specification:Sans Bold"
       x="958.56421"
       y="387.05237"
       id="text5365-7"
       sodipodi:linespacing="125%"><tspan
         sodipodi:role="line"
         id="tspan5367-4"
         x="958.56421"
         y="387.05237">A</tspan></text>
    <text
       xml:space="preserve"
       style="font-size:24px;font-style:normal;font-variant:normal;font-weight:bold;font-stretch:normal;line-height:125%;letter-spacing:0px;word-spacing:0px;fill:#000000;fill-opacity:1;stroke:none;font-family:Arial Rounded MT Bold;-inkscape-font-specification:Sans Bold"
       x="1135.3309"
       y="387.05237"
       id="text5365-7-2"
       sodipodi:linespacing="125%"><tspan
         sodipodi:role="line"
         id="tspan5367-4-7"
         x="1135.3309"
         y="387.05237">F</tspan></text>
    <text
       xml:space="preserve"
       style="font-size:24px;font-style:normal;font-variant:normal;font-weight:bold;font-stretch:normal;line-height:125%;letter-spacing:0px;word-spacing:0px;fill:#000000;fill-opacity:1;stroke:none;font-family:Arial Rounded MT Bold;-inkscape-font-specification:Sans Bold"
       x="1099.9774"
       y="387.05237"
       id="text5365-7-7"
       sodipodi:linespacing="125%"><tspan
         sodipodi:role="line"
         id="tspan5367-4-9"
         x="1099.9774"
         y="387.05237">E</tspan></text>
    <text
       xml:space="preserve"
       style="font-size:24px;font-style:normal;font-variant:normal;font-weight:bold;font-stretch:normal;line-height:125%;letter-spacing:0px;word-spacing:0px;fill:#000000;fill-opacity:1;stroke:none;font-family:Arial Rounded MT Bold;-inkscape-font-specification:Sans Bold"
       x="1064.6241"
       y="387.05237"
       id="text5365-7-3"
       sodipodi:linespacing="125%"><tspan
         sodipodi:role="line"
         id="tspan5367-4-1"
         x="1064.6241"
         y="387.05237">D</tspan></text>
    <text
       xml:space="preserve"
       style="font-size:24px;font-style:normal;font-variant:normal;font-weight:bold;font-stretch:normal;line-height:125%;letter-spacing:0px;word-spacing:0px;fill:#000000;fill-opacity:1;stroke:none;font-family:Arial Rounded MT Bold;-inkscape-font-specification:Sans Bold"
       x="1029.2709"
       y="387.05237"
       id="text5365-7-9"
       sodipodi:linespacing="125%"><tspan
         sodipodi:role="line"
         id="tspan5367-4-8"
         x="1029.2709"
         y="387.05237">C</tspan></text>
    <text
       xml:space="preserve"
       style="font-size:24px;font-style:normal;font-variant:normal;font-weight:bold;font-stretch:normal;line-height:125%;letter-spacing:0px;word-spacing:0px;fill:#000000;fill-opacity:1;stroke:none;font-family:Arial Rounded MT Bold;-inkscape-font-specification:Sans Bold"
       x="993.9176"
       y="387.05237"
       id="text5365-7-6"
       sodipodi:linespacing="125%"><tspan
         sodipodi:role="line"
         id="tspan5367-4-5"
         x="993.9176"
         y="387.05237">B</tspan></text>
    <text
       xml:space="preserve"
       style="font-size:18px;font-style:normal;font-variant:normal;font-weight:bold;font-stretch:normal;line-height:125%;letter-spacing:0px;word-spacing:0px;fill:#000000;fill-opacity:1;stroke:none;font-family:Arial Rounded MT Bold;-inkscape-font-specification:Sans Bold"
       x="106.1494"
       y="383.85803"
       id="text5528"
       sodipodi:linespacing="125%"><tspan
         sodipodi:role="line"
         id="tspan5530"
         x="106.1494"
         y="383.85803">Indicate sheet no. by circles</tspan></text>
    <flowRoot
       xml:space="preserve"
       id="flowRoot5554"
       style="font-size:18px;font-style:normal;font-variant:normal;font-weight:bold;font-stretch:normal;line-height:125%;letter-spacing:0px;word-spacing:0px;fill:#000000;fill-opacity:1;stroke:none;font-family:Arial Rounded MT Bold;-inkscape-font-specification:Sans Bold"
       transform="translate(91.149617,162.53539)"><flowRegion
         id="flowRegion5556"><rect
           id="rect5558"
           width="893.39282"
           height="70.184708"
           x="55.562893"
           y="90.49939"
           style="font-size:18px" /></flowRegion><flowPara
         id="flowPara5560"
         style="font-size:18px;font-style:normal;font-variant:normal;font-weight:bold;font-stretch:normal;text-align:start;line-height:150%;writing-mode:lr-tb;text-anchor:start;font-family:Arial Rounded MT Bold;-inkscape-font-specification:'Arial Rounded MT Bold, Bold'">There are 20 pairs of figures, rotated or mirrored. </flowPara><flowPara
         id="flowPara3926"
         style="font-size:18px;font-style:normal;font-variant:normal;font-weight:bold;font-stretch:normal;text-align:start;line-height:150%;writing-mode:lr-tb;text-anchor:start;font-family:Arial Rounded MT Bold;-inkscape-font-specification:'Arial Rounded MT Bold, Bold'">Circle pairs of figures that are the same</flowPara></flowRoot>    <rect
       style="fill:none;stroke:#000000;stroke-width:2.70193172;stroke-linejoin:bevel;stroke-miterlimit:4;stroke-opacity:1;stroke-dasharray:none"
       id="rect5201-0"
       width="25.644524"
       height="25.644526"
       x="107.63615"
       y="247.4846" />
    <rect
       style="fill:none;stroke:#000000;stroke-width:3.88037562;stroke-linejoin:bevel;stroke-miterlimit:4;stroke-opacity:1;stroke-dasharray:none"
       id="rect5191-2"
       width="1071.5366"
       height="40.410961"
       x="89.625397"
       y="975.47546" />
    <flowRoot
       xml:space="preserve"
       id="flowRoot5554-4"
       style="font-size:18px;font-style:normal;font-variant:normal;font-weight:bold;font-stretch:normal;line-height:125%;letter-spacing:0px;word-spacing:0px;fill:#000000;fill-opacity:1;stroke:none;font-family:Arial Rounded MT Bold;-inkscape-font-specification:Sans Bold"
       transform="translate(605.02018,897.14223)"><flowRegion
         id="flowRegion5556-8"><rect
           id="rect5558-6"
           width="893.39282"
           height="70.184708"
           x="55.562893"
           y="90.49939"
           style="font-size:18px" /></flowRegion><flowPara
         id="flowPara5560-5">When finished, put circle in box and change sheet.</flowPara></flowRoot>    <rect
       style="fill:none;stroke:#000000;stroke-width:2.70193172;stroke-linejoin:bevel;stroke-miterlimit:4;stroke-opacity:1;stroke-dasharray:none"
       id="rect5201-0-0"
       width="25.644524"
       height="25.644526"
       x="1127.8197"
       y="983.41736" />
    <rect
       style="fill:none;stroke:#000000;stroke-width:2.70193172;stroke-linejoin:bevel;stroke-miterlimit:4;stroke-opacity:1;stroke-dasharray:none"
       id="rect5201-0-9"
       width="25.644524"
       height="25.644526"
       x="588.62842"
       y="248.90335" />
    <rect
       style="fill:none;stroke:#000000;stroke-width:2.70193172;stroke-linejoin:bevel;stroke-miterlimit:4;stroke-opacity:1;stroke-dasharray:none"
       id="rect5201-0-9-4"
       width="25.644524"
       height="25.644526"
       x="500.51111"
       y="280.24921" />
    <text
       id="text9"
       x="780.70129"
       y="-836.52368"
       style="font-size:72.50785828px"
       transform="scale(1,-1)">
      <tspan
         x="780.70129"
         y="-745.88885"
         style="font-family:MS Gothic"
         id="tspan11">イ</tspan>
    </text>
    <text
       id="text65"
       x="237.08461"
       y="888.12988"
       style="font-size:72.50785828px">
      <tspan
         x="508.98907"
         y="888.12988"
         style="font-family:MS Gothic"
         id="tspan67">タ</tspan>
    </text>
    <text
       id="text113"
       x="577.75806"
       y="523.06616"
       style="font-size:72.50785828px">
      <tspan
         x="1030.932"
         y="704.33575"
         style="font-family:MS Gothic"
         id="tspan115">フ</tspan>
    </text>
    <text
       id="text157"
       x="-1357.1896"
       y="213.57359"
       style="font-size:72.50785828px"
       transform="matrix(0,-1,1,0,0,0)">
      <tspan
         x="-722.74597"
         y="485.478"
         style="font-family:MS Gothic"
         id="tspan159">レ</tspan>
    </text>
    <text
       id="text5-2"
       x="143.04135"
       y="-465.26309"
       style="font-size:72.50785828px"
       transform="scale(1,-1)">
      <tspan
         x="143.04135"
         y="-465.26309"
         style="font-family:MS Gothic"
         id="tspan7-4">ア</tspan>
    </text>
    <text
       id="text25-5"
       x="361.88278"
       y="-243.02542"
       style="font-size:72.50785828px"
       transform="matrix(0,1,-1,0,0,0)">
      <tspan
         x="452.51758"
         y="-243.02542"
         style="font-family:MS Gothic"
         id="tspan27-5">カ</tspan>
    </text>
    <text
       id="text9-1"
       x="146.29854"
       y="514.37134"
       style="font-size:72.50785828px">
      <tspan
         x="146.29854"
         y="605.0061"
         style="font-family:MS Gothic"
         id="tspan11-7">イ</tspan>
    </text>
    <text
       id="text81-1"
       x="-586.58807"
       y="-917.69623"
       style="font-size:72.50785828px"
       transform="scale(-1,-1)">
      <tspan
         x="-314.68359"
         y="-555.15692"
         style="font-family:MS Gothic"
         id="tspan83-1">ト</tspan>
    </text>
    <text
       id="text37-5"
       x="548.84039"
       y="-66.976479"
       style="font-size:72.50785828px"
       transform="matrix(0,1,1,0,0,0)">
      <tspan
         x="639.47516"
         y="204.92795"
         style="font-family:MS Gothic"
         id="tspan39-2">ケ</tspan>
    </text>
    <text
       id="text57-7"
       x="-486.46484"
       y="-924.12518"
       style="font-size:72.50785828px"
       transform="scale(-1,-1)">
      <tspan
         x="-305.19525"
         y="-652.22076"
         style="font-family:MS Gothic"
         id="tspan59-6">セ</tspan>
    </text>
    <text
       id="text121-2"
       x="-220.20337"
       y="434.61487"
       style="font-size:72.50785828px">
      <tspan
         x="232.97063"
         y="797.15411"
         style="font-family:MS Gothic"
         id="tspan123-3">ホ</tspan>
    </text>
    <text
       id="text69-2"
       x="-128.29663"
       y="798.34479"
       style="font-size:72.50785828px">
      <tspan
         x="143.60782"
         y="888.97961"
         style="font-family:MS Gothic"
         id="tspan71-2">チ</tspan>
    </text>
    <text
       id="text141-1"
       x="-309.42206"
       y="531.53857"
       style="font-size:72.50785828px">
      <tspan
         x="234.3868"
         y="894.07782"
         style="font-family:MS Gothic"
         id="tspan143-6">モ</tspan>
    </text>
    <text
       id="text29-8"
       x="849.28387"
       y="797.49506"
       style="font-size:72.50785828px">
      <tspan
         x="939.9187"
         y="888.12988"
         style="font-family:MS Gothic"
         id="tspan31-5">キ</tspan>
    </text>
    <text
       id="text77-7"
       x="-1172.9214"
       y="819.78125"
       style="font-size:72.50785828px"
       transform="matrix(0,-1,1,0,0,0)">
      <tspan
         x="-901.01703"
         y="1091.6857"
         style="font-family:MS Gothic"
         id="tspan79-6">テ</tspan>
    </text>
    <text
       style="font-size:72.50785828px"
       y="666.0033"
       x="-805.08472"
       id="text3891"
       transform="matrix(0,-1,1,0,0,0)">
      <tspan
         id="tspan3893"
         style="font-family:MS Gothic"
         y="756.63812"
         x="-805.08472">イ</tspan>
    </text>
    <text
       style="font-size:72.50785828px"
       y="-704.52307"
       x="369.55341"
       id="text3947"
       transform="matrix(0,1,-1,0,0,0)">
      <tspan
         id="tspan3949"
         style="font-family:MS Gothic"
         y="-704.52307"
         x="641.45782">タ</tspan>
    </text>
    <text
       style="font-size:72.50785828px"
       y="483.88394"
       x="-1260.4091"
       id="text4039"
       transform="matrix(0,-1,1,0,0,0)">
      <tspan
         id="tspan4041"
         style="font-family:MS Gothic"
         y="755.78839"
         x="-625.96545">レ</tspan>
    </text>
    <text
       id="text4051"
       x="1034.7557"
       y="514.37134"
       style="font-size:72.50785828px">
      <tspan
         x="1034.7557"
         y="605.0061"
         style="font-family:MS Gothic"
         id="tspan4053">イ</tspan>
    </text>
    <text
       id="text4079"
       x="687.23419"
       y="429.03253"
       style="font-size:72.50785828px">
      <tspan
         x="777.86902"
         y="700.93695"
         style="font-family:MS Gothic"
         id="tspan4081">ケ</tspan>
    </text>
    <text
       id="text4083"
       x="-713.90955"
       y="202.10522"
       style="font-size:72.50785828px"
       transform="matrix(0,-1,1,0,0,0)">
      <tspan
         x="-623.27472"
         y="564.64453"
         style="font-family:MS Gothic"
         id="tspan4085">コ</tspan>
    </text>
    <text
       id="text4107"
       x="-1166.832"
       y="486.8942"
       style="font-size:72.50785828px"
       transform="matrix(0,-1,1,0,0,0)">
      <tspan
         x="-894.92749"
         y="486.8942"
         style="font-family:MS Gothic"
         id="tspan4109">タ</tspan>
    </text>
    <text
       id="text4135"
       x="580.35333"
       y="334.69226"
       style="font-size:72.50785828px">
      <tspan
         x="942.8927"
         y="515.96198"
         style="font-family:MS Gothic"
         id="tspan4137">ヌ</tspan>
    </text>
    <text
       id="text4155"
       x="-981.1734"
       y="573.38586"
       style="font-size:72.50785828px"
       transform="matrix(0,-1,1,0,0,0)">
      <tspan
         x="-527.99939"
         y="754.65546"
         style="font-family:MS Gothic"
         id="tspan4157">フ</tspan>
    </text>
    <text
       id="text4159"
       x="-1467.1586"
       y="-933.47192"
       style="font-size:72.50785828px"
       transform="scale(-1,-1)">
      <tspan
         x="-1013.9845"
         y="-661.56744"
         style="font-family:MS Gothic"
         id="tspan4161">ヘ</tspan>
    </text>
    <text
       id="text4179"
       x="5.6834955"
       y="-1222.0197"
       style="font-size:72.50785828px"
       transform="matrix(0,1,-1,0,0,0)">
      <tspan
         x="549.49231"
         y="-950.11517"
         style="font-family:MS Gothic"
         id="tspan4181">メ</tspan>
    </text>
    <text
       id="text4187"
       x="143.14212"
       y="510.29727"
       style="font-size:72.50785828px">
      <tspan
         x="777.58575"
         y="510.29727"
         style="font-family:MS Gothic"
         id="tspan4189">ラ</tspan>
    </text>
    <text
       id="text4191"
       x="-1443.6353"
       y="475.42593"
       style="font-size:72.50785828px"
       transform="matrix(0,-1,1,0,0,0)">
      <tspan
         x="-809.19153"
         y="566.06067"
         style="font-family:MS Gothic"
         id="tspan4193">リ</tspan>
    </text>
    <text
       id="text4195"
       x="-210.85223"
       y="617.30072"
       style="font-size:72.50785828px">
      <tspan
         x="423.59143"
         y="798.57031"
         style="font-family:MS Gothic"
         id="tspan4197">ル</tspan>
    </text>
    <text
       id="text4199"
       x="-135.08455"
       y="432.99783"
       style="font-size:72.50785828px">
      <tspan
         x="499.35913"
         y="704.90222"
         style="font-family:MS Gothic"
         id="tspan4201">レ</tspan>
    </text>
    <text
       id="text4203"
       x="-1258.2848"
       y="123.50523"
       style="font-size:72.50785828px"
       transform="matrix(0,-1,1,0,0,0)">
      <tspan
         x="-623.84119"
         y="486.04449"
         style="font-family:MS Gothic"
         id="tspan4205">ロ</tspan>
    </text>
    <text
       id="text4135-1"
       x="-887.28162"
       y="912.25702"
       style="font-size:72.50785828px"
       transform="matrix(0,-1,1,0,0,0)">
      <tspan
         x="-524.74225"
         y="1093.5267"
         style="font-family:MS Gothic"
         id="tspan4137-8">ヌ</tspan>
    </text>
    <text
       id="text5304"
       x="266.00818"
       y="-607.41278"
       style="font-size:72.50785828px"
       transform="matrix(0,1,-1,0,0,0)">
      <tspan
         x="447.27774"
         y="-516.77802"
         style="font-family:MS Gothic"
         id="tspan5306">シ</tspan>
    </text>
    <text
       id="text5316"
       x="594.61676"
       y="526.44031"
       style="font-size:72.50785828px">
      <tspan
         x="775.88635"
         y="888.97961"
         style="font-family:MS Gothic"
         id="tspan5318">ソ</tspan>
    </text>
    <text
       id="text5348"
       x="669.24231"
       y="525.81616"
       style="font-size:72.50785828px">
      <tspan
         x="1031.7817"
         y="797.72058"
         style="font-family:MS Gothic"
         id="tspan5350">ネ</tspan>
    </text>
    <text
       style="font-size:72.50785828px"
       y="-551.36615"
       x="240.48083"
       id="text5436"
       transform="scale(1,-1)">
      <tspan
         id="tspan5438"
         style="font-family:MS Gothic"
         y="-460.73135"
         x="421.7504">シ</tspan>
    </text>
    <text
       style="font-size:72.50785828px"
       y="390.55838"
       x="-1086.252"
       id="text5448"
       transform="matrix(0,-1,1,0,0,0)">
      <tspan
         id="tspan5450"
         style="font-family:MS Gothic"
         y="753.09766"
         x="-904.9823">ソ</tspan>
    </text>
    <text
       style="font-size:72.50785828px"
       y="525.81616"
       x="578.08746"
       id="text5476">
      <tspan
         id="tspan5478"
         style="font-family:MS Gothic"
         y="797.72058"
         x="940.62683">ネ</tspan>
    </text>
    <text
       style="font-size:72.50785828px"
       y="-156.61998"
       x="-1261.0911"
       id="text5488"
       transform="matrix(0,-1,1,0,0,0)">
      <tspan
         id="tspan5490"
         style="font-family:MS Gothic"
         y="205.91927"
         x="-807.91699">ホ</tspan>
    </text>
    <text
       style="font-size:72.50785828px"
       y="567.14307"
       x="-1260.4091"
       id="text5508"
       transform="matrix(0,-1,1,0,0,0)">
      <tspan
         id="tspan5510"
         style="font-family:MS Gothic"
         y="839.04749"
         x="-625.96545">レ</tspan>
    </text>
    <text
       id="text57-7-2"
       x="-1037.1381"
       y="-468.45966"
       style="font-size:50.13051224px"
       transform="scale(-1,-1)">
      <tspan
         x="-911.81171"
         y="-280.47021"
         style="font-family:MS Gothic"
         id="tspan59-6-3">セ</tspan>
    </text>
    <text
       id="text57-7-2-3"
       x="-448.29007"
       y="770.9469"
       style="font-size:50.13051224px"
       transform="matrix(0,-1,1,0,0,0)">
      <tspan
         x="-322.96365"
         y="958.93628"
         style="font-family:MS Gothic"
         id="tspan59-6-3-4">セ</tspan>
    </text>
    <text
       id="text4195-1"
       x="601.40283"
       y="195.16257"
       style="font-size:47.53292465px">
      <tspan
         x="1017.3158"
         y="313.99484"
         style="font-family:MS Gothic"
         id="tspan4197-1">ル</tspan>
    </text>
    <text
       id="text4179-3"
       x="-147.21532"
       y="-1280.1384"
       style="font-size:56.10845184px"
       transform="matrix(0,1,-1,0,0,0)">
      <tspan
         x="273.59796"
         y="-1069.7317"
         style="font-family:MS Gothic"
         id="tspan4181-8">メ</tspan>
    </text>
    <path
       style="fill:none;stroke:#919191;stroke-width:3.54330707;stroke-linecap:butt;stroke-linejoin:miter;stroke-miterlimit:4;stroke-opacity:1;stroke-dasharray:none"
       d="m 893.81623,270.62766 c -1.36605,4.22992 -4.97882,-1.05747 -7.09378,0 -0.5982,0.2991 -0.82056,1.11966 -1.41876,1.41876 -0.42299,0.2115 -1.08435,-0.3344 -1.41875,0 -0.33441,0.3344 0.3344,1.08435 0,1.41876 -0.33441,0.3344 -0.99577,-0.2115 -1.41876,0 -1.1964,0.5982 -1.56854,2.41452 -2.83751,2.83751 -0.8973,0.2991 -1.99153,-0.42299 -2.83751,0 -1.1964,0.5982 -1.64111,2.23931 -2.83751,2.83751 -0.84599,0.42299 -1.94021,-0.2991 -2.83751,0 -0.63449,0.21149 -0.86228,1.04777 -1.41876,1.41876 -0.86004,0.57336 -4.81498,2.26415 -5.67502,2.83751 -0.55649,0.37099 -0.94584,0.94583 -1.41876,1.41875 -0.47292,0.47292 -1.11966,0.82056 -1.41876,1.41876 -0.21149,0.42299 0.33441,1.08435 0,1.41875 -0.3344,0.33441 -1.08435,-0.3344 -1.41875,0 -0.74775,0.74775 -0.83217,1.95764 -1.41876,2.83752 -0.74197,1.11296 -1.89167,1.89167 -2.83751,2.83751 -4.70542,4.70542 0.66881,-1.33762 -1.41876,2.83751 -0.2991,0.5982 -1.11965,0.82056 -1.41875,1.41876 -0.21589,0.43177 0,3.61732 0,4.25626 0,0.47292 -0.33441,1.08436 0,1.41876 0.3344,0.3344 0.99576,-0.2115 1.41875,0 1.2575,0.62875 2.96476,3.39526 4.25627,4.25627 1.75975,1.17316 3.91528,1.66434 5.67503,2.83751 0.55648,0.37099 0.79778,1.17037 1.41875,1.41876 1.81043,0.72417 3.82519,0.80214 5.67503,1.41875 1.00321,0.33441 1.8116,1.16228 2.83751,1.41876 0.91759,0.2294 1.91991,-0.2294 2.83751,0 1.0259,0.25647 1.80057,1.21136 2.83751,1.41875 1.39121,0.27824 2.85682,-0.23324 4.25627,0 1.47515,0.24586 2.78111,1.1729 4.25627,1.41876 1.39945,0.23324 2.85681,-0.23324 4.25626,0 1.47516,0.24586 2.83752,0.94584 4.25627,1.41876 3.31043,0.47291 6.5988,1.14104 9.93129,1.41875 4.24157,0.35347 8.51254,0 12.76881,0 2.83751,0 5.67502,0 8.51253,0 1.41876,0 2.85682,0.23324 4.25627,0 2.9503,-0.49172 5.57962,-2.25093 8.51254,-2.83751 0.92747,-0.18549 1.91004,0.18549 2.83751,0 3.73003,-0.74601 6.5007,-2.88403 9.93129,-4.25627 2.88402,-1.15361 4.59835,-1.17389 7.09378,-2.83751 0.55648,-0.37099 0.82055,-1.11966 1.41875,-1.41876 0.423,-0.21149 0.94584,0 1.41876,0 0.47292,-0.47291 0.82056,-1.11965 1.41876,-1.41875 0.42299,-0.2115 1.08435,0.3344 1.41875,0 0.33441,-0.33441 -0.3344,-1.08435 0,-1.41876 0.33441,-0.3344 0.99577,0.2115 1.41876,0 3.13695,-1.56847 0.44027,-0.88054 1.41875,-2.83751 0.2991,-0.5982 1.11966,-0.82056 1.41876,-1.41876 0.2115,-0.42299 0,-0.94583 0,-1.41875 0,-1.41876 0.3441,-2.87987 0,-4.25627 -0.25648,-1.0259 -0.67101,-2.08976 -1.41876,-2.83751 -0.74775,-0.74775 -2.08976,-0.67101 -2.83751,-1.41876 -0.74775,-0.74775 -0.671,-2.08976 -1.41875,-2.83751 -0.33441,-0.3344 -1.02527,0.26233 -1.41876,0 -1.11296,-0.74197 -1.76742,-2.03494 -2.83751,-2.83751 -0.84598,-0.63449 -1.95764,-0.83217 -2.83751,-1.41876 -0.55649,-0.37098 -0.82056,-1.11965 -1.41876,-1.41875 -0.42299,-0.2115 -1.08435,0.3344 -1.41876,0 -0.3344,-0.33441 0.33441,-1.08435 0,-1.41876 -0.74775,-0.74775 -1.95763,-0.83217 -2.83751,-1.41875 -0.55648,-0.37099 -0.82055,-1.11966 -1.41875,-1.41876 -0.42299,-0.2115 -0.95996,0.1147 -1.41876,0 -1.45085,-0.36271 -2.86773,-0.86334 -4.25627,-1.41876 -0.98184,-0.39273 -1.8116,-1.16228 -2.83751,-1.41875 -0.9176,-0.2294 -1.91004,0.18549 -2.83751,0 -1.46646,-0.29329 -2.78112,-1.1729 -4.25627,-1.41876 -1.39945,-0.23324 -2.84169,0.10882 -4.25627,0 -4.73877,-0.36452 -9.44686,-1.08013 -14.18756,-1.41875 -1.88686,-0.13478 -3.78334,0 -5.67502,0 -1.41875,0 -2.85681,0.23324 -4.25627,0 -4.30077,-0.7168 -8.45253,-2.22091 -12.7688,-2.83752 -2.80899,-0.40128 -5.67502,0 -8.51254,0"
       id="path8007"
       inkscape:connector-curvature="0" />
  </g>
  <g
     inkscape:groupmode="layer"
     id="layer2"
     inkscape:label="Answers"
     style="display:none">
    <path
       id="path3146-14-1"
       d="m 319.07288,61.260803 c 0,4.74804 -3.8622,8.61024 -8.6103,8.61024 -4.748,0 -8.6102,-3.8622 -8.6102,-8.61024 0,-4.74803 3.8622,-8.61023 8.6102,-8.61023 4.7481,0 8.6103,3.8622 8.6103,8.61023 z"
       style="fill:none;stroke:#ff0000;stroke-width:4.00393724px;stroke-linecap:butt;stroke-linejoin:miter;stroke-miterlimit:4;stroke-opacity:1;stroke-dasharray:none;display:inline"
       inkscape:connector-curvature="0" />
    <path
       id="path3146-14-7"
       d="m 129.59465,91.987003 c 0,4.74804 -3.8622,8.610237 -8.6103,8.610237 -4.748,0 -8.6102,-3.862197 -8.6102,-8.610237 0,-4.74803 3.8622,-8.61023 8.6102,-8.61023 4.7481,0 8.6103,3.8622 8.6103,8.61023 z"
       style="fill:none;stroke:#ff0000;stroke-width:4.00393724px;stroke-linecap:butt;stroke-linejoin:miter;stroke-miterlimit:4;stroke-opacity:1;stroke-dasharray:none;display:inline"
       inkscape:connector-curvature="0" />
    <path
       id="path3146-14-4"
       d="m 609.69154,93.267263 c 0,4.748037 -3.8622,8.610237 -8.6103,8.610237 -4.748,0 -8.6102,-3.8622 -8.6102,-8.610237 0,-4.74803 3.8622,-8.61023 8.6102,-8.61023 4.7481,0 8.6103,3.8622 8.6103,8.61023 z"
       style="fill:none;stroke:#ff0000;stroke-width:4.00393724px;stroke-linecap:butt;stroke-linejoin:miter;stroke-miterlimit:4;stroke-opacity:1;stroke-dasharray:none;display:inline"
       inkscape:connector-curvature="0" />
    <path
       id="path3146-14-0"
       d="m 522.63394,126.55398 c 0,4.74804 -3.8622,8.61024 -8.6103,8.61024 -4.748,0 -8.6102,-3.8622 -8.6102,-8.61024 0,-4.74803 3.8622,-8.61023 8.6102,-8.61023 4.7481,0 8.6103,3.8622 8.6103,8.61023 z"
       style="fill:none;stroke:#ff0000;stroke-width:4.00393724px;stroke-linecap:butt;stroke-linejoin:miter;stroke-miterlimit:4;stroke-opacity:1;stroke-dasharray:none;display:inline"
       inkscape:connector-curvature="0" />
    <path
       id="path3144-0-9"
       d="m 693.77834,212.89182 c 0,6.34252 -5.1378,11.48031 -11.4803,11.48031 -6.3425,0 -11.4803,-5.13779 -11.4803,-11.48031 0,-6.34252 5.1378,-11.48032 11.4803,-11.48032 6.3425,0 11.4803,5.1378 11.4803,11.48032 z"
       style="fill:none;stroke:#ff0000;stroke-width:5.35039377px;stroke-linecap:butt;stroke-linejoin:miter;stroke-miterlimit:4;stroke-opacity:1;stroke-dasharray:none;display:inline"
       inkscape:connector-curvature="0" />
    <path
       id="path3144-0-4"
       d="m 1048.9704,211.05105 c 0,6.34252 -5.1378,11.48031 -11.4803,11.48031 -6.3425,0 -11.4803,-5.13779 -11.4803,-11.48031 0,-6.34252 5.1378,-11.48032 11.4803,-11.48032 6.3425,0 11.4803,5.1378 11.4803,11.48032 z"
       style="fill:none;stroke:#ff0000;stroke-width:5.35039377px;stroke-linecap:butt;stroke-linejoin:miter;stroke-miterlimit:4;stroke-opacity:1;stroke-dasharray:none;display:inline"
       inkscape:connector-curvature="0" />
    <path
       id="path3142-5-8"
       d="m 315.24968,603.95807 c 0,22.65019 -40.80001,40.98606 -91.17872,40.98606 -50.37865,0 -91.23025,-18.33587 -91.23025,-40.98606 0,-22.65017 40.8516,-41.03996 91.23025,-41.03996 50.37871,0 91.17872,18.38979 91.17872,41.03996 z"
       style="fill:none;stroke:#ff0000;stroke-width:3.54330707;stroke-linecap:butt;stroke-linejoin:miter;stroke-miterlimit:4;stroke-opacity:1;stroke-dasharray:none;display:inline"
       inkscape:connector-curvature="0" />
    <path
       id="path3142-5-8-8"
       d="m 586.02434,322.46047 c 0,22.65019 -40.8,40.98606 -91.1787,40.98606 -50.3787,0 -91.2303,-18.33587 -91.2303,-40.98606 0,-22.65017 40.8516,-41.03996 91.2303,-41.03996 50.3787,0 91.1787,18.38979 91.1787,41.03996 z"
       style="fill:none;stroke:#ff0000;stroke-width:3.54330707;stroke-linecap:butt;stroke-linejoin:miter;stroke-miterlimit:4;stroke-opacity:1;stroke-dasharray:none;display:inline"
       inkscape:connector-curvature="0" />
    <path
       id="path3142-5-8-2"
       d="m 587.30454,515.77948 c 0,22.65019 -40.8,40.98606 -91.1787,40.98606 -50.3786,0 -91.2302,-18.33587 -91.2302,-40.98606 0,-22.65017 40.8516,-41.03996 91.2302,-41.03996 50.3787,0 91.1787,18.38979 91.1787,41.03996 z"
       style="fill:none;stroke:#ff0000;stroke-width:3.54330707;stroke-linecap:butt;stroke-linejoin:miter;stroke-miterlimit:4;stroke-opacity:1;stroke-dasharray:none;display:inline"
       inkscape:connector-curvature="0" />
    <path
       id="path3142-5-8-4"
       d="m 589.86504,696.2959 c 0,22.65019 -40.8,40.98606 -91.1787,40.98606 -50.3786,0 -91.2302,-18.33587 -91.2302,-40.98606 0,-22.65017 40.8516,-41.03996 91.2302,-41.03996 50.3787,0 91.1787,18.38979 91.1787,41.03996 z"
       style="fill:none;stroke:#ff0000;stroke-width:3.54330707;stroke-linecap:butt;stroke-linejoin:miter;stroke-miterlimit:4;stroke-opacity:1;stroke-dasharray:none;display:inline"
       inkscape:connector-curvature="0" />
    <path
       id="path3142-5-8-5"
       d="m 867.68114,418.47984 c 0,22.65019 -40.8,40.98606 -91.1787,40.98606 -50.3787,0 -91.2303,-18.33587 -91.2303,-40.98606 0,-22.65017 40.8516,-41.03996 91.2303,-41.03996 50.3787,0 91.1787,18.38979 91.1787,41.03996 z"
       style="fill:none;stroke:#ff0000;stroke-width:3.54330707;stroke-linecap:butt;stroke-linejoin:miter;stroke-miterlimit:4;stroke-opacity:1;stroke-dasharray:none;display:inline"
       inkscape:connector-curvature="0" />
    <path
       id="path3142-5-8-51"
       d="m 863.84034,602.83704 c 0,22.65019 -40.8,40.98606 -91.1787,40.98606 -50.3786,0 -91.2302,-18.33587 -91.2302,-40.98606 0,-22.65017 40.8516,-41.03996 91.2302,-41.03996 50.3787,0 91.1787,18.38979 91.1787,41.03996 z"
       style="fill:none;stroke:#ff0000;stroke-width:3.54330707;stroke-linecap:butt;stroke-linejoin:miter;stroke-miterlimit:4;stroke-opacity:1;stroke-dasharray:none;display:inline"
       inkscape:connector-curvature="0" />
    <path
       id="path3142-5-8-7"
       d="m 863.84034,701.41693 c 0,22.65019 -40.8,40.98606 -91.1787,40.98606 -50.3786,0 -91.2302,-18.33587 -91.2302,-40.98606 0,-22.65017 40.8516,-41.03996 91.2302,-41.03996 50.3787,0 91.1787,18.38979 91.1787,41.03996 z"
       style="fill:none;stroke:#ff0000;stroke-width:3.54330707;stroke-linecap:butt;stroke-linejoin:miter;stroke-miterlimit:4;stroke-opacity:1;stroke-dasharray:none;display:inline"
       inkscape:connector-curvature="0" />
    <path
       id="path3142-5-8-1"
       d="m 1110.9302,323.74073 c 0,22.65019 -40.8,40.98606 -91.1787,40.98606 -50.37866,0 -91.23026,-18.33587 -91.23026,-40.98606 0,-22.65017 40.8516,-41.03996 91.23026,-41.03996 50.3787,0 91.1787,18.38979 91.1787,41.03996 z"
       style="fill:none;stroke:#ff0000;stroke-width:3.54330707;stroke-linecap:butt;stroke-linejoin:miter;stroke-miterlimit:4;stroke-opacity:1;stroke-dasharray:none;display:inline"
       inkscape:connector-curvature="0" />
    <path
       id="path3142-5-8-15"
       d="m 1113.4907,605.39756 c 0,22.65019 -40.8,40.98606 -91.1787,40.98606 -50.37866,0 -91.23026,-18.33587 -91.23026,-40.98606 0,-22.65017 40.8516,-41.03996 91.23026,-41.03996 50.3787,0 91.1787,18.38979 91.1787,41.03996 z"
       style="fill:none;stroke:#ff0000;stroke-width:3.54330707;stroke-linecap:butt;stroke-linejoin:miter;stroke-miterlimit:4;stroke-opacity:1;stroke-dasharray:none;display:inline"
       inkscape:connector-curvature="0" />
    <path
       id="path3146-14-0-2"
       d="m 1149.9605,830.69607 c 0,4.74803 -3.8622,8.61023 -8.6103,8.61023 -4.748,0 -8.6102,-3.8622 -8.6102,-8.61023 0,-4.74803 3.8622,-8.61023 8.6102,-8.61023 4.7481,0 8.6103,3.8622 8.6103,8.61023 z"
       style="fill:none;stroke:#ff0000;stroke-width:4.00393724px;stroke-linecap:butt;stroke-linejoin:miter;stroke-miterlimit:4;stroke-opacity:1;stroke-dasharray:none;display:inline"
       inkscape:connector-curvature="0" />
  </g>
</svg>
